PathFileType	4	(X/Y/Z)	C:/Users/opensim2020/Desktop/walking_exp_matlab/subject06_walking21_straight_01.trc																																																																																																																																		
DataRate	CameraRate	NumFrames	NumMarkers	Units	OrigDataRate	OrigDataStartFrame	OrigNumFrames																																																																																																																														
100	100	4	44	mm	100	797	155																																																																																																																														
Frame#	Time	LFHD			RFHD			LBHD			RBHD			C7			T10			CLAV			STRN			RBAK			LSHO			LUPA			LELB			LFRM			LWRA			LWRB			LFIN			RSHO			RUPA			RELB			RFRM			RWRA			RWRB			RFIN			LASI			RASI			LPSI			RPSI			LTHI			LKNE			LTIB			LANK			LHEE			LTOE			RTHI			RKNE			RTIB			RANK			RHEE			RTOE			*39			*40			*41			*42			*43		
		X1	Y1	Z1	X2	Y2	Z2	X3	Y3	Z3	X4	Y4	Z4	X5	Y5	Z5	X6	Y6	Z6	X7	Y7	Z7	X8	Y8	Z8	X9	Y9	Z9	X10	Y10	Z10	X11	Y11	Z11	X12	Y12	Z12	X13	Y13	Z13	X14	Y14	Z14	X15	Y15	Z15	X16	Y16	Z16	X17	Y17	Z17	X18	Y18	Z18	X19	Y19	Z19	X20	Y20	Z20	X21	Y21	Z21	X22	Y22	Z22	X23	Y23	Z23	X24	Y24	Z24	X25	Y25	Z25	X26	Y26	Z26	X27	Y27	Z27	X28	Y28	Z28	X29	Y29	Z29	X30	Y30	Z30	X31	Y31	Z31	X32	Y32	Z32	X33	Y33	Z33	X34	Y34	Z34	X35	Y35	Z35	X36	Y36	Z36	X37	Y37	Z37	X38	Y38	Z38	X39	Y39	Z39	X40	Y40	Z40	X41	Y41	Z41	X42	Y42	Z42	X43	Y43	Z43	X44	Y44	Z44
																																																																																																																																					
39	0.38	-529.224	1633.79358	-1040.4718	-535.15845	1617.64771	-909.79034	-664.35492	1585.8927	-1048.22021	-668.47296	1575.06177	-919.25092	-675.39264	1425.98938	-988.60425	-728.9975	1099.67712	-983.28809	-569.9447	1342.00366	-994.28003	-540.61877	1166.66003	-1000.1261	-753.0498	1260.66626	-900.20123	-637.32373	1375.34143	-1152.02783	-694.01514	1181.60669	-1222.39026	-731.42566	1075.65979	-1232.11584	-754.33014	929.22638	-1263.40771	-719.92517	799.28925	-1240.09985	-787.10663	814.09363	-1263.10229	-771.91022	725.47437	-1276.21643	-603.57062	1380.21997	-830.85162	-637.10834	1187.94104	-731.86664	-620.49249	1068.93164	-713.96399	-565.70435	963.64148	-704.89221	-463.8689	861.65643	-755.70587	-506.71487	840.5119	-708.86639	-443.66217	786.3222	-717.63678	-556.3078	941.0481	-1094.22742	-558.73889	939.22565	-876.49811	-711.95477	962.28052	-1074.60681	-708.73871	969.39392	-906.3996	-537.93683	634.25531	-1165.20984	-462.51434	491.91058	-1136.45422	-427.84976	239.15347	-1134.06653	-378.26752	72.40919	-1097.25073	-412.29297	50.93425	-1048.22925	-231.29561	70.75732	-1093.45435	-663.09198	610.87897	-838.87329	-691.56329	487.45578	-863.84149	-818.96643	246.61858	-875.02271	-886.54565	74.54415	-929.76227	-931.87518	57.13776	-975.14789	-741.18561	30.22715	-923.58984	-629.93604	1674.07898	-984.08325	NaN	NaN	NaN	NaN	NaN	NaN	NaN	NaN	NaN	NaN	NaN	NaN
40	0.39	-517.1618	1630.99768	-1041.69275	-522.79822	1614.93384	-910.93982	-652.39594	1583.33765	-1049.05164	-656.25574	1572.59644	-920.03326	-663.47913	1423.19922	-989.34192	-716.06873	1096.55994	-983.7608	-557.65753	1339.36304	-995.0174	-527.77747	1164.2467	-1000.34998	-740.60437	1257.72522	-900.58594	-625.2616	1372.16907	-1152.83887	-683.84021	1179.21069	-1222.93274	-722.94482	1073.83789	-1232.62122	-748.84808	928.04529	-1264.12976	-716.25482	797.35413	-1241.53308	-783.88464	813.71198	-1263.79761	-770.99091	724.56641	-1276.84546	-591.21991	1377.729	-831.54822	-623.82257	1185.45923	-732.08679	-606.883	1066.56433	-714.04657	-551.39972	961.60059	-704.97137	-449.21484	860.2428	-755.98138	-491.80695	838.9101	-708.97778	-428.42258	785.13239	-717.90033	-541.63428	938.80927	-1093.86145	-546.17499	936.44965	-876.065	-697.57263	959.42499	-1075.69153	-696.08344	966.31891	-907.44385	-523.3988	631.59399	-1167.12024	-448.2897	488.96259	-1136.73108	-405.27814	237.78006	-1134.34326	-348.56317	73.2925	-1097.33801	-382.21054	49.84359	-1048.95789	-201.50127	78.49812	-1091.19446	-653.01587	608.93335	-838.5	-682.62994	485.53342	-863.64142	-814.4093	246.95442	-875.24597	-885.59106	76.29774	-929.56677	-931.29053	59.75682	-974.80322	-741.02362	29.99541	-923.77869	-617.71582	1671.42957	-985.0105	NaN	NaN	NaN	NaN	NaN	NaN	NaN	NaN	NaN	NaN	NaN	NaN
41	0.4	-504.89224	1628.38025	-1042.77869	-510.30045	1612.47559	-912.08862	-640.28491	1580.98364	-1049.94641	-643.83344	1570.27161	-920.92163	-651.3465	1420.42065	-990.13361	-703.0155	1093.646	-984.31287	-545.29224	1336.88928	-995.77911	-514.66632	1161.96045	-1000.46204	-728.06384	1254.9209	-901.06433	-613.03729	1369.29443	-1153.65283	-673.26868	1176.8645	-1223.35852	-714.09998	1072.24646	-1233.02869	-742.60773	927.026	-1264.83337	-712.19482	795.74481	-1243.47583	-779.63599	813.32135	-1264.3678	-769.04486	723.80493	-1277.38538	-578.81787	1375.39075	-832.32263	-610.49658	1183.13086	-732.55206	-593.28699	1064.35059	-714.2757	-537.42285	959.61841	-705.2287	-434.85553	858.75922	-756.31799	-477.259	837.27887	-709.20392	-413.70581	783.91217	-718.10181	-526.68433	936.75214	-1093.50903	-533.59875	933.83801	-875.60217	-683.01801	956.71344	-1077.15308	-683.33667	963.38239	-908.79285	-508.14975	629.08643	-1168.81262	-433.72617	486.23254	-1136.90186	-384.02585	236.69153	-1134.44897	-321.8801	74.20807	-1097.13953	-354.99423	49.11511	-1049.03259	-174.50153	85.58989	-1089.92676	-642.70337	607.16327	-838.80035	-672.97119	483.7569	-863.71027	-809.41602	247.52065	-875.33679	-884.50476	78.45806	-929.19287	-930.88763	63.11017	-974.19739	-740.91754	29.92766	-923.85431	-605.33746	1669.03979	-985.98877	NaN	NaN	NaN	NaN	NaN	NaN	NaN	NaN	NaN	NaN	NaN	NaN
42	0.41	-492.69876	1626.02014	-1044.16919	-497.82306	1610.19592	-913.336	-628.07129	1578.72009	-1050.97485	-631.42621	1568.15601	-921.93219	-639.07629	1417.91394	-991.02051	-689.77155	1090.90186	-984.99164	-532.67194	1334.677	-996.47968	-501.44965	1159.84839	-1000.66583	-715.36987	1252.34668	-901.6781	-600.57941	1366.64795	-1154.65857	-662.30524	1174.84106	-1224.05371	-704.63037	1070.72681	-1233.62048	-735.48767	926.11237	-1265.46082	-706.85156	794.33313	-1245.12878	-774.24689	812.97345	-1264.86682	-765.96893	723.34503	-1277.93555	-566.34009	1373.33984	-833.12103	-597.30212	1181.03735	-733.05774	-579.79083	1062.30908	-714.6369	-523.72479	957.76892	-705.51721	-420.92111	857.1604	-756.58588	-463.13248	835.59131	-709.25385	-399.43942	782.40515	-718.33557	-511.66821	934.72198	-1093.40637	-520.68146	931.46472	-875.32672	-668.33356	954.25525	-1078.76013	-670.32855	960.59241	-910.4101	-492.23657	626.90894	-1170.09338	-419.05475	483.92963	-1137.05701	-364.02423	235.8167	-1134.3363	-298.38474	74.7489	-1096.51599	-330.92838	48.77178	-1048.43018	-151.35928	90.14317	-1089.16687	-631.68201	605.42267	-839.1665	-662.68036	482.08572	-863.7453	-803.93774	248.43399	-875.22693	-883.14905	81.09545	-928.59607	-929.95221	66.85738	-973.53369	-740.87158	29.83733	-923.94214	-592.87268	1666.85974	-987.10864	NaN	NaN	NaN	NaN	NaN	NaN	NaN	NaN	NaN	NaN	NaN	NaN
